/* XPM */
static char * C:\Users\Glory\Documents\pixmaps\bitcoin64_xpm[] = {
"48 48 603 2",
"  	c None",
". 	c #FFFFFF",
"+ 	c #FDFEFD",
"@ 	c #FBFCFB",
"# 	c #F5F8F5",
"$ 	c #EDF3ED",
"% 	c #E3ECE3",
"& 	c #DAE6DA",
"* 	c #D0E0D0",
"= 	c #C7DBC7",
"- 	c #C2D8C2",
"; 	c #BFD6BF",
"> 	c #C8DCC8",
", 	c #D1E1D1",
"' 	c #DAE7DA",
") 	c #E4EDE4",
"! 	c #FEFFFE",
"~ 	c #FAFBFA",
"{ 	c #F2F6F2",
"] 	c #E7EFE7",
"^ 	c #D7E5D8",
"/ 	c #C5DAC6",
"( 	c #B2CFB2",
"_ 	c #A0C5A0",
": 	c #93BE93",
"< 	c #8BBB8B",
"[ 	c #88BA88",
"} 	c #89BA89",
"| 	c #8BBC8C",
"1 	c #93BF94",
"2 	c #A1C6A2",
"3 	c #B3D0B3",
"4 	c #C6DBC6",
"5 	c #D8E6D9",
"6 	c #E7EFE8",
"7 	c #F9FBF9",
"8 	c #FEFEFE",
"9 	c #E2ECE2",
"0 	c #CCDECC",
"a 	c #B1CFB2",
"b 	c #99C299",
"c 	c #86B987",
"d 	c #86B986",
"e 	c #8ABB8A",
"f 	c #8FBD8F",
"g 	c #93BF93",
"h 	c #94BF94",
"i 	c #91BE92",
"j 	c #8DBC8D",
"k 	c #89BB8A",
"l 	c #88BA89",
"m 	c #8EBC8E",
"n 	c #9BC39B",
"o 	c #B1CFB1",
"p 	c #CBDDCB",
"q 	c #E1ECE1",
"r 	c #F0F6F0",
"s 	c #FCFDFD",
"t 	c #F5F9F6",
"u 	c #E6EFE6",
"v 	c #ACCBAC",
"w 	c #90BE91",
"x 	c #83B884",
"y 	c #90BE90",
"z 	c #A5C8A5",
"A 	c #B8D2B8",
"B 	c #C6DAC6",
"C 	c #D0E1D0",
"D 	c #D7E5D7",
"E 	c #D9E6D9",
"F 	c #D4E3D4",
"G 	c #CDDFCD",
"H 	c #C1D8C1",
"I 	c #B0CEB0",
"J 	c #87B987",
"K 	c #92BE92",
"L 	c #AACBAA",
"M 	c #C9DCC9",
"N 	c #E3EDE3",
"O 	c #F4F8F4",
"P 	c #FCFDFC",
"Q 	c #F0F5F0",
"R 	c #B6D1B6",
"S 	c #81B782",
"T 	c #9FC59F",
"U 	c #BBD4BB",
"V 	c #D1E2D1",
"W 	c #E0EBE0",
"X 	c #EAF1EA",
"Y 	c #F1F5F1",
"Z 	c #F8FAF8",
"` 	c #FAFCFA",
" .	c #F7FAF7",
"..	c #F4F7F4",
"+.	c #EEF4EE",
"@.	c #ACCCAC",
"#.	c #85B985",
"$.	c #EBF2EB",
"%.	c #83B883",
"&.	c #9EC49E",
"*.	c #BFD7BF",
"=.	c #D9E7DA",
"-.	c #EBF1EB",
";.	c #FDFDFD",
">.	c #ABCCAB",
",.	c #8CBC8D",
"'.	c #85B886",
").	c #9FC5A0",
"!.	c #C6DBC7",
"~.	c #E6EFE7",
"{.	c #E9F0E9",
"].	c #9AC29A",
"^.	c #81B781",
"/.	c #B4D0B4",
"(.	c #D6E4D6",
"_.	c #ECF2EC",
":.	c #F1F6F1",
"<.	c #DFEADF",
"[.	c #C1D8C2",
"}.	c #9BC39C",
"|.	c #83B784",
"1.	c #BDD5BD",
"2.	c #C4D9C4",
"3.	c #95C096",
"4.	c #7FB680",
"5.	c #99C199",
"6.	c #CFE0CF",
"7.	c #A7C9A7",
"8.	c #85B885",
"9.	c #B9D3B9",
"0.	c #96C096",
"a.	c #7FB57F",
"b.	c #E1EBE1",
"c.	c #F3F6F3",
"d.	c #FBFDFB",
"e.	c #E4EDE5",
"f.	c #CFE0D0",
"g.	c #9CC49D",
"h.	c #80B680",
"i.	c #BAD3BA",
"j.	c #E5EEE5",
"k.	c #F3F7F3",
"l.	c #84B784",
"m.	c #91BE91",
"n.	c #C2D8C3",
"o.	c #EAF1EB",
"p.	c #F6F9F6",
"q.	c #DBE8DB",
"r.	c #A8CAA9",
"s.	c #83B783",
"t.	c #98C198",
"u.	c #D3E2D3",
"v.	c #B5D1B5",
"w.	c #9EC59E",
"x.	c #BCD5BC",
"y.	c #DDE9DD",
"z.	c #F5F9F5",
"A.	c #F2F7F2",
"B.	c #82B782",
"C.	c #9AC39B",
"D.	c #CEE0CF",
"E.	c #F1F6F2",
"F.	c #E8F0E8",
"G.	c #BAD4BA",
"H.	c #C0D7C0",
"I.	c #B7D2B8",
"J.	c #7BB47C",
"K.	c #62AB62",
"L.	c #66AC66",
"M.	c #73B174",
"N.	c #A1C6A1",
"O.	c #98C299",
"P.	c #82B783",
"Q.	c #AACBAB",
"R.	c #DDE9DE",
"S.	c #55A756",
"T.	c #4AA44B",
"U.	c #4EA44E",
"V.	c #61AA62",
"W.	c #74B174",
"X.	c #AECDAE",
"Y.	c #CBDECB",
"Z.	c #E9F1E9",
"`.	c #BED6BE",
" +	c #8ABB8B",
".+	c #C0D7C1",
"++	c #84B884",
"@+	c #D8E5D8",
"#+	c #5DA95E",
"$+	c #4DA44E",
"%+	c #4CA44D",
"&+	c #4DA54E",
"*+	c #59A859",
"=+	c #6DAE6D",
"-+	c #8CBB8C",
";+	c #D5E3D5",
">+	c #DDE8DD",
",+	c #A6C8A7",
"'+	c #81B681",
")+	c #D1E2D2",
"!+	c #95C095",
"~+	c #A9CAA9",
"{+	c #65AB65",
"]+	c #56A757",
"^+	c #59A759",
"/+	c #51A551",
"(+	c #49A34A",
"_+	c #48A349",
":+	c #9DC49D",
"<+	c #C8DBC8",
"[+	c #EFF4EF",
"}+	c #B8D3B9",
"|+	c #ECF3EC",
"1+	c #B3CFB3",
"2+	c #6BAE6B",
"3+	c #67A966",
"4+	c #64A862",
"5+	c #54A554",
"6+	c #47A348",
"7+	c #4FA550",
"8+	c #67AC67",
"9+	c #A6C8A6",
"0+	c #A6C9A6",
"a+	c #DCE8DC",
"b+	c #B2CFB3",
"c+	c #70B070",
"d+	c #51A451",
"e+	c #66A764",
"f+	c #74AA71",
"g+	c #6BA969",
"h+	c #55A655",
"i+	c #4DA44D",
"j+	c #62AB63",
"k+	c #8FBD90",
"l+	c #ECF3ED",
"m+	c #BFD6C0",
"n+	c #8FBE90",
"o+	c #CADDCA",
"p+	c #CCDFCD",
"q+	c #87B988",
"r+	c #4AA34A",
"s+	c #59A357",
"t+	c #75A570",
"u+	c #7FAB7B",
"v+	c #6EAB6D",
"w+	c #54A655",
"x+	c #65AC66",
"y+	c #D3E3D3",
"z+	c #97C197",
"A+	c #B7D2B7",
"B+	c #BBD5BB",
"C+	c #98C298",
"D+	c #D8E6D8",
"E+	c #F2F7F3",
"F+	c #78B378",
"G+	c #4EA54E",
"H+	c #48A348",
"I+	c #4EA24D",
"J+	c #68A162",
"K+	c #86A77F",
"L+	c #88AF84",
"M+	c #6CAC6C",
"N+	c #50A550",
"O+	c #75B175",
"P+	c #B5D0B5",
"Q+	c #E8EFE8",
"R+	c #EEF3EE",
"S+	c #DEE9DE",
"T+	c #7EB67F",
"U+	c #DEEADE",
"V+	c #ABCBAB",
"W+	c #7CB57C",
"X+	c #49A249",
"Y+	c #579D52",
"Z+	c #7A9F71",
"`+	c #94AE8E",
" @	c #89B387",
".@	c #64AB64",
"+@	c #4BA44C",
"@@	c #5EA95F",
"#@	c #D6E5D6",
"$@	c #C3D9C3",
"%@	c #A8CAA8",
"&@	c #ADCCAD",
"*@	c #C5DAC5",
"=@	c #52A652",
"-@	c #48A248",
";@	c #4F9E4B",
">@	c #67975C",
",@	c #8DA083",
"'@	c #9DB498",
")@	c #83B482",
"!@	c #5AA85B",
"~@	c #53A653",
"{@	c #82B883",
"]@	c #BAD4BB",
"^@	c #8BBA8B",
"/@	c #8BB98B",
"(@	c #8EB98D",
"_@	c #8CB98C",
":@	c #77B277",
"<@	c #8BBB8C",
"[@	c #C3D9C4",
"}@	c #C4DAC5",
"|@	c #EFF5EF",
"1@	c #89BA8A",
"2@	c #4AA049",
"3@	c #5B9550",
"4@	c #7D926F",
"5@	c #A1AA98",
"6@	c #9EBA9B",
"7@	c #76B176",
"8@	c #50A551",
"9@	c #4DA54D",
"0@	c #75B275",
"a@	c #B1CEB1",
"b@	c #7DB37D",
"c@	c #8BB78A",
"d@	c #98B995",
"e@	c #94B590",
"f@	c #7FAF7C",
"g@	c #67AA67",
"h@	c #59A85A",
"i@	c #67AD68",
"j@	c #CDDECD",
"k@	c #8ABA8A",
"l@	c #CADDCB",
"m@	c #F7F9F7",
"n@	c #5BA85C",
"o@	c #529849",
"p@	c #688C58",
"q@	c #929985",
"r@	c #ABB8A5",
"s@	c #94BB93",
"t@	c #63AB64",
"u@	c #71B071",
"v@	c #81B480",
"w@	c #97BA95",
"x@	c #A1B99D",
"y@	c #91AE8B",
"z@	c #78A873",
"A@	c #60A65F",
"B@	c #84B885",
"C@	c #C7DBC8",
"D@	c #A5C8A6",
"E@	c #4C9D48",
"F@	c #5D8C4D",
"G@	c #80876D",
"H@	c #A7AA9E",
"I@	c #AAC0A7",
"J@	c #80B581",
"K@	c #53A654",
"L@	c #4EA54F",
"M@	c #78B379",
"N@	c #C0D8C1",
"O@	c #A5C7A5",
"P@	c #9EBC9B",
"Q@	c #A5B8A0",
"R@	c #8EA987",
"S@	c #6EA168",
"T@	c #56A153",
"U@	c #4BA34C",
"V@	c #72B072",
"W@	c #AFCDAF",
"X@	c #9AC29B",
"Y@	c #79B37A",
"Z@	c #49A047",
"`@	c #559047",
" #	c #6C7F56",
".#	c #969588",
"+#	c #B3BCAD",
"@#	c #9DC09C",
"##	c #68AD68",
"$#	c #57A758",
"%#	c #A7C7A7",
"&#	c #A5C0A2",
"*#	c #A7B7A1",
"=#	c #8DA585",
"-#	c #6A9D62",
";#	c #539F4F",
">#	c #4AA34B",
",#	c #5EAA5F",
"'#	c #C9DDC9",
")#	c #D5E4D5",
"!#	c #48A148",
"~#	c #509646",
"{#	c #62804C",
"]#	c #858270",
"^#	c #AFAEA5",
"/#	c #B1C5AE",
"(#	c #5BA85B",
"_#	c #6FAF70",
":#	c #A9CAAA",
"<#	c #D9E5D9",
"[#	c #BDCEBB",
"}#	c #ACBAA6",
"|#	c #8FA485",
"1#	c #699B60",
"2#	c #529E4D",
"3#	c #BCD4BC",
"4#	c #CEE0CE",
"5#	c #90BD90",
"6#	c #4C9C47",
"7#	c #5A8646",
"8#	c #727559",
"9#	c #9D978F",
"0#	c #B9C2B3",
"a#	c #A4C5A3",
"b#	c #CEDFCE",
"c#	c #E5E9E4",
"d#	c #C3CABF",
"e#	c #99A991",
"f#	c #6F9B65",
"g#	c #559E50",
"h#	c #4CA24B",
"i#	c #5BA95B",
"j#	c #7EB57E",
"k#	c #84B985",
"l#	c #C4D9C5",
"m#	c #5EA95E",
"n#	c #54A253",
"o#	c #598E4A",
"p#	c #68734C",
"q#	c #8B8277",
"r#	c #B7B7AF",
"s#	c #C4D2C1",
"t#	c #C1D7C1",
"u#	c #F6F6F5",
"v#	c #DFDFDC",
"w#	c #BABDB3",
"x#	c #93A98B",
"y#	c #75A971",
"z#	c #67AB67",
"A#	c #68AC68",
"B#	c #8EBD8E",
"C#	c #85B986",
"D#	c #ACCCAD",
"E#	c #84B684",
"F#	c #7BA374",
"G#	c #768262",
"H#	c #817668",
"I#	c #AAA39D",
"J#	c #D4D5D0",
"K#	c #E9EEE8",
"L#	c #FAFAFA",
"M#	c #EBEAE9",
"N#	c #D1CDCB",
"O#	c #C4C3BE",
"P#	c #C3CDBF",
"Q#	c #B4CEB3",
"R#	c #F8FBF8",
"S#	c #C0CEBD",
"T#	c #A5A89A",
"U#	c #887C72",
"V#	c #998D87",
"W#	c #CECAC8",
"X#	c #F2F2F1",
"Y#	c #FDFDFC",
"Z#	c #F3F2F1",
"`#	c #DAD7D6",
" $	c #CAC5C4",
".$	c #D9D7D6",
"+$	c #EAEDE9",
"@$	c #FAFCFB",
"#$	c #E5EEE6",
"$$	c #F6F8F5",
"%$	c #ECEDEA",
"&$	c #C9C6C3",
"*$	c #958882",
"=$	c #8A7973",
"-$	c #BDB6B3",
";$	c #EAE8E7",
">$	c #FCFBFB",
",$	c #F9F8F8",
"'$	c #E5E2E2",
")$	c #CDC8C6",
"!$	c #D2CDCC",
"~$	c #ECEBEA",
"{$	c #FAFAF9",
"]$	c #B5D1B6",
"^$	c #F8F8F7",
"/$	c #D9D6D5",
"($	c #A09591",
"_$	c #816E66",
":$	c #A79D99",
"<$	c #DCD8D7",
"[$	c #EFEDED",
"}$	c #D5D0CF",
"|$	c #CBC5C4",
"1$	c #E2DFDE",
"2$	c #F7F7F7",
"3$	c #8CBC8C",
"4$	c #E2E0DF",
"5$	c #ADA4A1",
"6$	c #816D66",
"7$	c #93857F",
"8$	c #CCC6C4",
"9$	c #ECEAE9",
"0$	c #E0DEDD",
"a$	c #C9C4C2",
"b$	c #D4D0CE",
"c$	c #F0EEEE",
"d$	c #FDFCFC",
"e$	c #ABCBAC",
"f$	c #A4C7A4",
"g$	c #DBE7DB",
"h$	c #CCDFCC",
"i$	c #BBB4B1",
"j$	c #87766F",
"k$	c #85736C",
"l$	c #B8B0AD",
"m$	c #D8D5D3",
"n$	c #D0CBCA",
"o$	c #CAC5C3",
"p$	c #E3E1DF",
"q$	c #F8F8F8",
"r$	c #BCD5BD",
"s$	c #9CC39C",
"t$	c #C8C2C0",
"u$	c #90807B",
"v$	c #7A655C",
"w$	c #9E928E",
"x$	c #BEB7B4",
"y$	c #C2BCBA",
"z$	c #D2CECC",
"A$	c #F0EFEE",
"B$	c #AECCAE",
"C$	c #9EC59F",
"D$	c #F5F4F4",
"E$	c #D3CECD",
"F$	c #988B86",
"G$	c #735B50",
"H$	c #837169",
"I$	c #9F948F",
"J$	c #BDB7B4",
"K$	c #E0DDDC",
"L$	c #F8F7F7",
"M$	c #F9F9F9",
"N$	c #DCD9D8",
"O$	c #A29692",
"P$	c #735A50",
"Q$	c #91827C",
"R$	c #C4BEBC",
"S$	c #EDEBEA",
"T$	c #FCFCFC",
"U$	c #A8C9A8",
"V$	c #A0C5A1",
"W$	c #E4E1E0",
"X$	c #7A645C",
"Y$	c #755D53",
"Z$	c #9C908C",
"`$	c #D4CFCE",
" %	c #F6F5F5",
".%	c #A2C7A2",
"+%	c #BAB2B0",
"@%	c #806C64",
"#%	c #B2AAA6",
"$%	c #7FB67F",
"%%	c #A3C7A3",
"&%	c #FEFEFD",
"*%	c #EFEDEC",
"=%	c #C5BFBC",
"-%	c #8E7F79",
";%	c #C5BFBD",
">%	c #9DC49E",
",%	c #C7DCC7",
"'%	c #CFCAC8",
")%	c #9F938E",
"!%	c #A09590",
"~%	c #F7F6F6",
"{%	c #BBD4BC",
"]%	c #7DB57E",
"^%	c #92BF93",
"/%	c #D9E7D9",
"(%	c #D8D4D3",
"_%	c #B4ACA9",
":%	c #E0DDDD",
"<%	c #FAF9F9",
"[%	c #DFEAE0",
"}%	c #C8C3C1",
"|%	c #FCFCFB",
"1%	c #A4C8A4",
"2%	c #C0D8C0",
"3%	c #EDF2ED",
"4%	c #F5F7F4",
"5%	c #E6E5E3",
"6%	c #D0CDCA",
"7%	c #DAD9D6",
"8%	c #F0F2F0",
"9%	c #99C29A",
"0%	c #87BA88",
"a%	c #8EBD8F",
"b%	c #D7E1D6",
"c%	c #D1DACF",
"d%	c #D4DFD3",
"e%	c #D2E2D2",
"f%	c #A2C7A3",
"g%	c #E0EAE0",
"h%	c #95BF95",
"i%	c #96C197",
"j%	c #A6C9A7",
"k%	c #7EB57F",
"l%	c #BDD6BE",
". . . . . . . . . . . . . . + @ # $ % & * = - ; ; - > , ' ) $ # @ + ! . . . . . . . . . . . . . ",
". . . . . . . . . . . . + ~ { ] ^ / ( _ : < [ [ [ } | 1 2 3 4 5 6 { 7 + . . . . . . . . . . . . ",
". . . . . . . . . . 8 @ { 9 0 a b < c d c e f g h i j k l } m n o p q r ~ 8 . . . . . . . . . . ",
". . . . . . . . . s t u 0 v w x x y z A B C D ' ' E F G H I n < J K L M N O P . . . . . . . . . ",
". . . . . . . ! @ Q E R 1 S J T U V W X Y # Z ` ` 7  ...+.u ' = @.K #.K o F $ ~ 8 . . . . . . . ",
". . . . . . 8 ~ $.G z d %.&.*.=.-.# ` ;.+ 8 . . . . . 8 + P Z Q 9 0 >.,.'.).!.~.Z 8 . . . . . . ",
". . . . . ! 7 {.B ].^.f /.(._. .P 8 . . . . . . . . . . . . ! + ` :.<.[.}.|.h 1.9  .8 . . . . . ",
". . . . ! ` {.2.3.4.5.- % # P ! . . . . . . . . . . . . . . . . . + Z -.6.7.8.m 9.9  .8 . . . . ",
". . . . @ _.= 0.a.b - b.c.~ + ! . . . . . . . . . . . . . . . . . . ! d.Q D @.8.j U e.7 8 . . . ",
". . . + :.f.g.h.].i.= 6.' j.+.# 7 P ! . . . . . . . . . . . . . . . . . ;.k.E v l.m.n.o.@ . . . ",
". . 8 p.q.r.s.t./ u.v.n w.@.x.0 y.$.z.` + . . . . . . . . . . . . . . . . + A.(.z B.C.D.E.+ . . ",
". . @ F.G.[ ,.H.u ] I.J.K.L.M.l N.9.* N { ` 8 . . . . . . . . . . . . . . . P Q G O.P.Q.R.Z 8 . ",
". 8 k.C t.^.I b. .A.> c S.T.U.S.V.W.f X.Y.) O P . . . . . . . . . . . . . . . @ Z.`.}  +.+_.P . ",
". @ j.a ++5., k.+  .@+].#+T.$+%+T.&+*+=+-+( ;+$ ` ! . . . . . . . . . . . . . !  .>+,+'+N.@+ .! ",
"8 O )+!+s.9.F.@ . @ ) ~+{+$+]+^+/+(+_+%+^+W.:+<+F.7 8 . . . . . . . . . . . . . + [+4 j J ; $ P ",
"P Z.}+d t.F z.8 . ;.|+1+2+$+^+3+4+5+(+6+_+7+8+m.- F.~ . . . . . . . . . . . . . . 7 <.9+^.0+y.Z ",
"Z a+).B.b+j.@ . . 8 Q 9.c+%+d+e+f+g+h+(+6+_+i+j+k+4 l+P . . . . . . . . . . . . . ;.$ m+l n+o+{ ",
"r p+j q+M :.8 . . 8 E.x.W.%+r+s+t+u+v+w+_+6+6+%+x+n y+O 8 . . . . 8 + P P @ @ @ P P O F z+S A+Z.",
"] B+d C+D+Z . . . 8 E+*.F+G+H+I+J+K+L+M+N+6+6+_+7+O+P+] @ . . 8 d.p.[+Q+N b.b.9 j.X R+S+0+T+7.y.",
"U+>.c V+9 @ . . . 8 k.- W+7+6+X+Y+Z+`+ @.@+@6+6+_+@@b #@ .! +  .{.#@$@3 V+~+%@%@&@U * @+( x ].6.",
"#@g.#.G.X P . . . 8 ..*@^.=@6+-@;@>@,@'@)@!@(+6+6+~@{@> O ;.O S+]@b ^@/@(@_@l.:@W.} /., x.<@w [@",
"6.m.++}@|@+ . . . ! # Y.1@S.6+6+2@3@4@5@6@7@8@6+6+9@0@*.r p.y.a@J b@c@d@e@f@g@h@i@t.j@j.Y.g k U ",
"o+k@++l@k.8 . . . ! m@F 3.n@6+6+-@o@p@q@r@s@t@T.6++@u@x.$ Q+x.1@v@w@x@y@z@A@d+*+c - X A.F C+B@v.",
"C@J 8.G O 8 . . . . ~ W D@x+(+6+6+E@F@G@H@I@J@K@_+L@M@N@Z.D O@/@P@Q@R@S@T@U@L@V@W@b.Z p.@+X@B.a@",
"= J 8.G O 8 . . . . P |+U Y@8@6+6+Z@`@ #.#+#@###%+$#< G X * %#&#*#=#-#;#X+>#,#h C k.+  .D+C.B.a@",
"'#} B@Y.k.8 . . . . 8 p.)#g.L.%+6+!#~#{#]#^#/#l.(#_#:#<.Q <#[#}#|#1#2#X+r+$#S 3#F.@ 8 p.(.O.++/.",
"4#f ++*@Q + . . . . . P $ / 5#.@L@(+6#7#8#9#0#a#8.&.b#Y m@c#d#e#f#g#h#$+i#j#a@<. .8 8 O C !+} U ",
")#].k#U -.P . . . . . ! ` F.l#O.M.m#n#o#p#q#r#s#t#F $ ` u#v#w#x#y#z#A#W.f A+y.# + . 8 :.= B#5#$@",
">+r.C#D#N @ . . . . . . ! ~ $.u.v.O.E#F#G#H#I#J#K#k.@ L#M#N#O#P#Q#~+V+]@C u p.+ . . + $ G.d b b#",
"j.A d ].E R#. . . . . . . ! P O ] 5 j@S#T#U#V#W#X#Y#;.Z#`# $.$+$] 9 N $.O @$8 . . . d.#$V+4.0+a+",
"+.M k@l o+A.8 . . . . . . . . 8 @ 7 $$%$&$*$=$-$;$>$,$'$)$!$~${$d.@ @ P 8 . . . . 8  .D+n ^.]$F.",
"p.E ].'+v.] d.. . . . . . . . . . . 8 ^$/$($_$:$<$u#[$}$|$1$2$8 . . . . . . . . . + [+2.3$B#> :.",
"@ ] 3 ++X@(.p.! . . . . . . . . . . . >$4$5$6$7$8$9$0$a$b$c$d$. . . . . . . . . . ~ 9 e$P.f$g$ .",
"+ { h$y ++3#Z.d.. . . . . . . . . . . ;.;$i$j$k$l$m$n$o$p$q$8 . . . . . . . . . + { 0 K c r$_.P ",
"! 7 q V+B.s$y+O 8 . . . . . . . . . . 8 c$t$u$v$w$x$y$z$A$;.. . . . . . . . . ! 7 q B$|.C$(.p.8 ",
". + Y p K B.3 % 7 ! . . . . . . . . . 8 D$E$F$G$H$I$J$K$L$8 . . . . . . . . . P $ *@f 1@`.$.P . ",
". . ` ) 3 ++f $@-.@ . . . . . . . . . . M$N$O$P$P$Q$R$S$T$. . . . . . . . . + k.F _ %.U$q. .8 . ",
". . 8 O )#V$h.n G +.P . . . . . . . . . T$W$5$X$Y$Z$`$ %8 . . . . . . . . 8 p.y.X.8.t.0 Q + . . ",
". . . P R+> h T+.%, [+d.. . . . . . . . ;.;$+%k$@%#%W$L#. . . . . . . . + p.W R 1@f *.{.` ! . . ",
". . . ! ` Q+`.j $%%%6.l+` 8 . . . . . . &%*%=%Q$-%;%A$;.. . . . . . . ;.O <.A+3$| I.9 Z 8 . . . ",
". . . . 8 R#N i.3$T+>%,%u p.P ! . . . . 8 Z#'%)%!%`$~%8 . . . . . 8 ` Q 5 o <@,.v.<.m@8 . . . . ",
". . . . . 8  .% {%5#]%^%9./%+.Z ;.! . . 8 ~%(%5$_%:%<%. . . . 8 d.# ] 0 0+l m.9.[%p.8 . . . . . ",
". . . . . . 8 Z j.$@].^.8..%*@S+$  .d.+ + <%K$-$}%M#|%8 8 P ~ k.F.)#A+3.J n - )  .8 . . . . . . ",
". . . . . . . 8 7 $.* L } j#k@1%2%#@) 3%{ 4%5%6%7%8% .z.Q X <.b#]$9%0%a%D#* -.7 8 . . . . . . . ",
". . . . . . . . ! @ { U+H T d 4.C#!+:#r$Y.;+b%c%d%g$=.e%B v.N.k+c  +f%2.g%{ @ ! . . . . . . . . ",
". . . . . . . . . . + Z _.E H.f$<@S P.d  +k+h h%0.i%g a%< J 8.f j%- g$$ Z + . . . . . . . . . . ",
". . . . . . . . . . . ! P  .|+S+0 9.0+!+[ h.]%]%]%k%^.} 0.7.U b#<.$  .P ! . . . . . . . . . . . ",
". . . . . . . . . . . . . ! P 7 { ] g$C !.l%I././.A `.= C q.F.{ 7 ;.! . . . . . . . . . . . . . "};
