/* XPM */
static char * C:\Users\Glory\Documents\pixmaps\bitcoin16_xpm[] = {
"16 16 118 2",
"  	c None",
". 	c #4DA54E",
"+ 	c #48A349",
"@ 	c #47A348",
"# 	c #72B172",
"$ 	c #B8D3B8",
"% 	c #E0EBE0",
"& 	c #EFF5EF",
"* 	c #EBF2EB",
"= 	c #D4E3D4",
"- 	c #9CC49C",
"; 	c #4FA54F",
"> 	c #A2C6A2",
", 	c #F3F7F3",
"' 	c #FFFFFF",
") 	c #FEFFFE",
"! 	c #DCE8DC",
"~ 	c #74B275",
"{ 	c #A0C6A1",
"] 	c #C4D9C4",
"^ 	c #C6DBC6",
"/ 	c #ECF3EC",
"( 	c #E5EEE5",
"_ 	c #71B072",
": 	c #7DB57D",
"< 	c #F1F6F1",
"[ 	c #CBDECC",
"} 	c #4AA44B",
"| 	c #9DC59D",
"1 	c #EFF4EF",
"2 	c #C9DCC9",
"3 	c #B9D3B9",
"4 	c #E1ECE1",
"5 	c #55A656",
"6 	c #6FAA6D",
"7 	c #6DAF6E",
"8 	c #EEF4EE",
"9 	c #F5F8F5",
"0 	c #83B883",
"a 	c #6EAF6E",
"b 	c #E6EEE6",
"c 	c #50A651",
"d 	c #78A471",
"e 	c #78AF77",
"f 	c #A7C9A8",
"g 	c #EDF3ED",
"h 	c #C1D8C1",
"i 	c #BED6BE",
"j 	c #D1E1D1",
"k 	c #A4C8A4",
"l 	c #6FAF6F",
"m 	c #F1F6F2",
"n 	c #ECF2EC",
"o 	c #61AA61",
"p 	c #4D9B47",
"q 	c #A6B59F",
"r 	c #59A759",
"s 	c #83B783",
"t 	c #EEF3EE",
"u 	c #8BB98B",
"v 	c #95B391",
"w 	c #63A962",
"x 	c #D3E3D3",
"y 	c #BFD7BF",
"z 	c #6EAF6F",
"A 	c #F2F6F2",
"B 	c #FAFCFA",
"C 	c #98C299",
"D 	c #879279",
"E 	c #99BF98",
"F 	c #ADCDAD",
"G 	c #E2EBE2",
"H 	c #97AC90",
"I 	c #49A148",
"J 	c #A1C6A1",
"K 	c #FCFDFC",
"L 	c #C1D8C2",
"M 	c #E4EEE4",
"N 	c #B1CFB1",
"O 	c #829876",
"P 	c #CDD0C8",
"Q 	c #DBD9D6",
"R 	c #BAD0B9",
"S 	c #BFD6BF",
"T 	c #F7F9F7",
"U 	c #AECDAE",
"V 	c #C0D7C1",
"W 	c #E5E3E2",
"X 	c #B2A9A6",
"Y 	c #F2F1F0",
"Z 	c #E1DEDD",
"` 	c #F7FAF7",
" .	c #89BA89",
"..	c #F6F9F6",
"+.	c #F7F6F6",
"@.	c #8A7A74",
"#.	c #CAC5C3",
"$.	c #FEFEFE",
"%.	c #D2E1D2",
"&.	c #AFCEB0",
"*.	c #FDFEFD",
"=.	c #968883",
"-.	c #D4D0CE",
";.	c #7CB57C",
">.	c #69AD69",
",.	c #B3D0B3",
"'.	c #F9FBF9",
").	c #B7AEAC",
"!.	c #F5F4F4",
"~.	c #E8F0E8",
"{.	c #83B884",
"].	c #84B884",
"^.	c #CBDDCB",
"/.	c #E3E2E1",
"(.	c #E4EDE4",
"_.	c #5DA95E",
":.	c #4CA54D",
"<.	c #4BA44C",
"            . + @               ",
"        # $ % & * = - ;         ",
"      > , ' ' ' ' ' ) ! ~       ",
"    { ] ^ / ' ' ' ' ' ' ( _     ",
"  : < [ } ; | 1 ' ' ' ' ' 2     ",
"  3 ' 4 5 6 + 7 8 ' ' ' ' 9 0   ",
"a 4 ' b c d e @ f ' g h i j k   ",
"l m ' n o p q r s t u v w x y   ",
"z A ' B C @ D E F G H I J K L   ",
"z M ' ' , N O P B Q R S T ' U   ",
"  V ' ' ' ' W X Y Z ' ' ' `  .  ",
"  0 ..' ' ' +.@.#.$.' ' ' %.    ",
"    &.*.' ' ' =.-.' ' ' g ;.    ",
"    >.,.'.' ' ).!.' ' ~.{.      ",
"        ].^.1 /.T (.N _.        ",
"            :.c <.@             "};
