<svg height="16" width="16" xmlns="http://www.w3.org/2000/svg" xmlns:xlink="http://www.w3.org/1999/xlink"><linearGradient id="a" gradientUnits="userSpaceOnUse" x1="2.224874" x2="14.038582" y1="2.830136" y2="13.171574"><stop offset="0" stop-color="#909090"/><stop offset="1" stop-color="#3c3c3c"/></linearGradient><filter id="b"><feGaussianBlur stdDeviation=".3240906"/></filter><linearGradient id="c" gradientUnits="userSpaceOnUse" x1="2.224874" x2="14.038582" y1="2.830136" y2="13.171574"><stop offset="0" stop-color="#ccff82"/><stop offset="1" stop-color="#a0ff19"/></linearGradient><linearGradient id="d" gradientUnits="userSpaceOnUse" x1="10.740074" x2="6.305574" y1="16.148634" y2="-1.279839"><stop offset="0"/><stop offset="1" stop-color="#b3b3b3"/></linearGradient><radialGradient id="e" cx="8.197575" cy="-.080272" gradientTransform="matrix(1.5712985 .01074232 -.01353758 1.9801676 -4.565548 -.683559)" gradientUnits="userSpaceOnUse" r="7.778174"><stop offset="0" stop-color="#fff"/><stop offset=".36363637" stop-color="#fff884" stop-opacity=".498039"/><stop offset="1" stop-color="#fff10a" stop-opacity="0"/></radialGradient><linearGradient id="f" gradientUnits="userSpaceOnUse" x1="2.224874" x2="14.038582" y1="2.830136" y2="13.171574"><stop offset="0" stop-color="#c1c1c1"/><stop offset="1" stop-color="#8c8c8c"/></linearGradient><path d="m15.821514 8.1334372a7.7781744 7.7781744 0 1 1 -15.55634867 0 7.7781744 7.7781744 0 1 1 15.55634867 0z" fill="url(#a)" filter="url(#b)" transform="translate(0 -.088388)"/><path d="m15.821514 8.1334372a7.7781744 7.7781744 0 1 1 -15.55634867 0 7.7781744 7.7781744 0 1 1 15.55634867 0z" fill="url(#c)" transform="matrix(.91562931 0 0 .91562931 .647372 .566585)"/><path d="m1.0968082 4.6340519a7.7781744 7.7781744 0 0 1 6.973924-4.27874091l-.0273925 7.77812621z" fill="url(#f)" transform="matrix(.91562931 0 0 .91562931 .647372 .566585)"/><g><path d="m8.875 2.03125c0 .5005081-.3917508.90625-.875.90625s-.875-.4057419-.875-.90625.3917508-.90625.875-.90625.875.4057419.875.90625zm-3.0265805.6046493c.250254.4334527.1138588.9807109-.3046473 1.2223355s-.9606432.0861172-1.2108972-.3473355c-.250254-.4334528-.1138588-.9807109.3046472-1.2223355.4185061-.2416246.9606432-.0861172 1.2108973.3473355zm-2.3187707 2.0369311c.4334527.250254.5889601.7923911.3473355 1.2108972s-.7888828.5549013-1.2223355.3046472c-.4334528-.250254-.5889602-.7923911-.3473356-1.2108972.2416247-.4185061.7888828-.5549013 1.2223356-.3046472zm-.989649 2.9234201c.5005081 0 .90625.3917508.90625.875s-.4057419.875-.90625.875-.90625-.3917508-.90625-.875.4057419-.875.90625-.875zm.6046492 3.0265805c.4334527-.250254.9807109-.113859 1.2223355.304647s.086117.960643-.3473355 1.210897c-.4334527.250254-.9807109.113859-1.2223355-.304647s-.0861172-.960643.3473355-1.210897zm2.036931 2.31877c.2502541-.433452.7923912-.58896 1.2108973-.347335.4185061.241624.5549012.788883.3046472 1.222335-.2502541.433453-.7923912.58896-1.2108972.347336-.4185061-.241625-.5549013-.788883-.3046473-1.222336zm2.9234201.989649c0-.500508.3917508-.90625.875-.90625s.875.405742.875.90625c0 .500509-.3917508.90625-.875.90625s-.875-.405741-.875-.90625zm3.0265799-.604649c-.250254-.433453-.113859-.980711.304647-1.222335.418507-.241625.960644-.08612 1.210898.347335.250254.433453.113859.980711-.304648 1.222336-.418506.241624-.960643.08612-1.210897-.347336zm2.318771-2.036931c-.433453-.250254-.58896-.792391-.347335-1.210897.241624-.4185064.788882-.5549016 1.222335-.3046476.433453.2502536.58896.7923916.347336 1.2108976-.241625.418506-.788883.554901-1.222336.304647zm.989649-2.92342c-.500508 0-.90625-.3917508-.90625-.875s.405742-.875.90625-.875.90625.3917508.90625.875-.405742.875-.90625.875zm-.604649-3.0265803c-.433453.2502541-.980711.1138589-1.222335-.3046472-.241625-.4185061-.086118-.9606432.347335-1.2108973.433453-.250254.980711-.1138588 1.222336.3046473.241624.4185061.08612.9606432-.347336 1.2108972zm-2.036931-2.3187708c-.250254.4334527-.792391.5889601-1.210897.3473355s-.554902-.7888828-.304648-1.2223355c.250254-.4334528.792392-.5889601 1.210898-.3473355s.554901.7888828.304647 1.2223355z" fill="url(#d)" transform="matrix(.77323696 -.44642857 .44642857 .77323696 -1.97159 5.552933)"/><g fill="none" stroke="#000"><path d="m7.875 2.8017767v5.25"/><path d="m7.7781746 7.4629419 3.0052034.1767767"/></g></g><path d="m15.41196 8.1334372a7.3686199 7.4368792 0 1 1 -14.73724019 0 7.3686199 7.4368792 0 1 1 14.73724019 0z" fill="url(#e)" transform="matrix(.91562931 0 0 .91562931 .647372 .566585)"/></svg>