<svg height="120" width="120" xmlns="http://www.w3.org/2000/svg"><g><path d="m9.4375 99.758169 68.70915-66.647875-4.466094-4.809641-6.527369-19.925653 18.55147 6.527369 4.80964 3.779003 4.809641-4.80964 11.680552 12.367647-6.18382 4.80964 13.74183 14.085377-12.71119 14.42892-14.77247-16.14665-65.273693 70.770424z" fill="#a9a9a9"/><path d="m114.5625 99.758169-68.70915-66.647875 4.466094-4.809641 6.527369-19.925653-18.55147 6.527369-4.80964 3.779003-4.809641-4.80964-11.680556 12.367647 6.183825 4.80964-13.741831 14.085377 12.711193 14.42892 14.772467-16.14665 65.27369 70.770424z" fill="#a9a9a9"/><g fill="#6e6e6e"><path d="m10.960155 44.693128 27.577165-28.284272 15.556349-5.656854-5.656854 17.324116-26.162951 28.637825z"/><path d="m69.296465 10.398449 16.263456 6.717514 26.162949 27.930718-9.54594 11.667262-27.223611-28.991378z"/></g></g></svg>